<svg xmlns="http://www.w3.org/2000/svg" viewBox="0 0 48 48">
  <path d="M44 21c-.8-.6-2.6-1-4.8-.8-.3-2-1.6-3.7-3.2-4.8l-.7-.4-.4.6c-.5.8-.9 1.8-1 2.8-.2 1.4.1 2.7.8 3.8-.6.3-1.2.6-1.8.7-1 .3-2.2.4-3.2.4H2.2l-.1.8c-.2 2.2.2 4.4 1.1 6.4 1.1 2.2 2.8 3.8 5.2 4.8 2.6 1.1 5.6 1.4 8.5 1.1 2.2-.2 4.2-.8 6.2-1.7 1.6-.8 3-1.8 4.2-3.2 2-2.2 3.2-4.8 3.8-7.6h.4c1.6 0 2.8-.5 3.6-1.2.4-.4.8-.8 1-1.4l.1-.4z" fill="#2496ED"/>
  <rect x="21.5" y="14" width="5" height="4.5" rx="0.4" fill="#2496ED"/>
  <rect x="15" y="14" width="5" height="4.5" rx="0.4" fill="#2496ED"/>
  <rect x="8.5" y="14" width="5" height="4.5" rx="0.4" fill="#2496ED"/>
  <rect x="21.5" y="8" width="5" height="4.5" rx="0.4" fill="#2496ED"/>
  <rect x="28" y="14" width="5" height="4.5" rx="0.4" fill="#2496ED"/>
  <rect x="8.5" y="19.5" width="5" height="4.5" rx="0.4" fill="#2496ED"/>
  <rect x="15" y="19.5" width="5" height="4.5" rx="0.4" fill="#2496ED"/>
  <rect x="21.5" y="19.5" width="5" height="4.5" rx="0.4" fill="#2496ED"/>
</svg>
