<svg xmlns="http://www.w3.org/2000/svg" viewBox="0 0 48 48">
  <path d="M24 4C12.95 4 4 12.95 4 24s8.95 20 20 20 20-8.95 20-20S35.05 4 24 4z" fill="#E0234E"/>
  <path d="M27 12c-1.2 0-2 .6-2.4 1.4.8.2 1.4.8 1.6 1.6.1.3.1.6 0 .9-.2.8-.8 1.2-1.4 1.4-.3.6-.2 1.2.1 1.7.4.6 1 1 1.8 1h.4c1.8-.2 3.2-1.6 3.2-3.4v-.2C30.3 13.6 28.8 12 27 12z" fill="#fff"/>
  <path d="M20.5 15c-.3-.8-1-1.4-1.8-1.6-.4-.1-.8 0-1.2.2-.6.4-.8 1-.8 1.6 0 .3.1.5.2.7.6-.2 1.2-.2 1.8 0 .6.2 1 .6 1.3 1.1.4-.2.6-.6.7-1 0-.4-.1-.7-.2-1z" fill="#fff"/>
  <path d="M15 20c-.6-.3-1.3-.3-2 0-.5.3-.9.7-1 1.3-.2.8.1 1.6.7 2.2 1.2 1.2 2.8 2 4.6 2.4 2.8.6 5.8.3 8.4-1 2-1 3.6-2.7 4.4-4.7.4-1 .6-2.2.4-3.3-.1-.4-.3-.8-.6-1-.3-.2-.7-.3-1-.2-.6.2-1 .6-1.2 1.2-.2.4-.2.9-.1 1.4.2 1-.2 2-1 2.7-1 .8-2.2 1.2-3.5 1.2-1.6 0-3-.4-4.2-1.2-.8-.6-1.4-1.2-1.8-2 0 0-.8.4-1 .4-.3.1-.6.2-1 .2-.2.1-.4.2-.6.4z" fill="#fff"/>
  <path d="M35 25c-.3-1-.8-2-1.5-2.7.5 1.5.3 3.2-.4 4.6-1 2-2.8 3.5-4.8 4.4-2.8 1.2-6 1.4-8.8.4-1.6-.5-3-1.4-4-2.7-.4-.5-.7-1-1-1.6-.2.8-.2 1.7 0 2.5.6 2.5 2.4 4.6 4.8 5.6 2.2.9 4.7 1 7 .2 2.6-.8 4.8-2.6 6-5 .8-1.6 1-3.4.7-5.2-.1-.2-.1-.4-.1-.5z" fill="#fff"/>
</svg>
